<svg xmlns="http://www.w3.org/2000/svg" width="50" height="46">
  <g fill="none">
    <g fill="#000">
      <path d="M49.1565415,21.3082022 C48.6059874,20.7469532 47.8693227,20.4349009 47.0848804,20.4287823 L45.6615509,20.4171012 C45.3437739,17.5068384 44.4626652,14.6104818 42.965447,11.8848917 C36.8732411,0.790071239 22.9521673,-3.25993315 11.8705303,2.84038248 C0.789448855,8.93902939 -3.25554031,22.8773634 2.83611004,33.9727401 C8.92776038,45.0675605 22.8488342,49.1175649 33.9304712,43.0183617 C40.1671211,39.5852307 44.167666,33.6684752 45.3932182,27.1743396 L47.0271028,27.1876895 C47.5298792,27.1915832 48.0282112,27.0664285 48.4665433,26.8250191 C49.3998742,26.3110507 49.983206,25.331507 49.9926504,24.2674144 L49.9998726,23.398563 C50.0070948,22.6109231 49.7070956,21.8688951 49.1565415,21.3082022 Z M33.4276947,42.1016735 C22.8682786,47.9132991 9.55553648,44.0412924 3.75110759,33.468784 C-2.05332131,22.8973881 1.81444611,9.56758384 12.3738623,3.75595826 C22.9327229,-2.05622356 36.2460205,1.81689559 42.0504494,12.3888477 C43.4554457,14.9492337 44.285999,17.6709301 44.6004426,20.4082013 L44.1787771,20.4048638 C43.8665557,17.737123 43.0548912,15.0849569 41.6848948,12.5902076 C35.9910212,2.22017168 22.9327229,-1.57841093 12.5749728,4.12196607 C2.21777836,9.82289932 -1.57665592,22.8973881 4.11721772,33.2679804 C9.81109135,43.6380163 22.8693897,47.4360427 33.2265842,41.7356657 C38.9721243,38.5723124 42.6910033,33.141157 43.8971111,27.1609898 L44.3237767,27.1648835 C43.1104466,33.2918988 39.3104568,38.8637837 33.4276947,42.1016735 Z M31.349367,38.3158845 C22.8755008,42.9805372 12.191085,39.872252 7.53220857,31.3873232 C2.87333216,22.9023943 5.97832384,12.2052876 14.45219,7.5406348 C22.9266118,2.87653827 33.610472,5.98371098 38.269904,14.4697523 C42.9287804,22.9541249 39.8237887,33.6517879 31.349367,38.3158845 Z M49.4359852,24.2618519 C49.4276519,25.1245846 48.9543198,25.9188995 48.1976552,26.3355254 C47.8421006,26.5307666 47.4393239,26.6325591 47.0304361,26.6292216 L40.6104533,26.5758223 C40.9910078,24.7341021 41.0882298,22.830639 40.8810081,20.9338508 L47.0765471,20.9850251 C47.713212,20.9905876 48.3104327,21.2442343 48.755987,21.6986847 C49.203208,22.1531352 49.4459852,22.75499 49.4404296,23.3924443 L49.4359852,24.2618519 Z"/>
      <path d="M15.3376862,9.32908759 C7.78631623,13.480615 5.02989937,22.9675169 9.18148466,30.5193376 C13.3325139,38.0717144 22.820104,40.8280929 30.371474,36.6765655 C37.9239561,32.524482 40.680373,23.0381362 36.5282316,15.4868715 C32.3772024,7.93393861 22.8896122,5.17811624 15.3376862,9.32908759 Z M21.7229867,37.4428131 C21.6651559,37.7653266 21.3899035,37.9938663 21.0746143,38.0044314 C21.0279048,38.0060996 20.9811953,38.0027633 20.9333737,37.9933103 C18.067968,37.4834053 15.3538121,36.2367237 13.0839526,34.3883877 C11.1349429,32.8013988 9.69084069,30.7817969 8.83338763,28.4763813 C8.90901255,28.1755541 9.10419155,27.9303326 9.44950825,27.8402512 C9.71586364,27.770744 9.94329444,27.8502603 10.1106702,28.0059564 C10.8841573,30.0828323 12.1864628,31.9022533 13.9436299,33.3335461 C16.0344363,35.036195 18.534507,36.1833422 21.1724819,36.652655 C21.5417094,36.7188258 21.7891585,37.0730347 21.7229867,37.4428131 Z M36.1906998,18.282174 C35.8987654,17.9174001 35.56457,17.5876578 35.1953425,17.300732 C35.0702278,17.2034219 34.9417766,17.1105602 34.8099891,17.022147 C34.6693045,16.9270612 34.5252835,16.8364237 34.3784822,16.7507908 C33.8568928,16.4488515 33.3002712,16.2381056 32.7341965,16.0423732 C32.2220601,15.8655468 31.7221572,15.6548009 31.2211421,15.4479474 C30.5694333,15.1793715 29.9110517,14.9269213 29.2504459,14.6811438 C29.0569351,14.6088562 28.8628682,14.5376809 28.6682453,14.4692857 C27.9926256,14.230737 27.3042165,14.0555788 26.6158074,13.8615146 C25.5448252,13.412776 24.5811636,12.7905473 24.2842246,11.7028983 C24.092938,11.0022655 24.2497485,10.1331471 24.8797708,9.69997813 C25.4664199,9.29628018 26.2143281,9.40026299 26.8810506,9.46698992 C26.9088539,9.46977021 26.9361011,9.47310656 26.9639044,9.47644291 C27.5739083,9.55151071 28.1549968,9.75725209 28.7093941,10.0185992 C30.7657245,10.9850277 32.6435578,12.2739696 34.0726462,14.0533545 C34.7699524,14.9213607 35.3971943,15.8549817 35.8765228,16.8625584 C36.1184113,17.3719074 36.3208192,17.8990502 36.4904191,18.436758 C36.5426893,18.6024633 36.5905109,18.7698366 36.6377765,18.936654 C36.5054329,18.7070021 36.3558513,18.4890275 36.1906998,18.282174 Z" transform="rotate(-28 22.9 23)"/>
      <path d="M13.3592246 13.8609678C13.4240706 13.9795007 13.5484905 14.0532544 13.6839817 14.0532544 13.7461916 14.0532544 13.8073472 14.0374501 13.8621763 14.0074217 13.9486376 13.9600086 14.0113748 13.8815135 14.0387893 13.7866872 14.0640951 13.6997631 14.0556598 13.6091514 14.0177012 13.5280222L13.9850146 13.5264418C13.9222775 13.5238077 13.8600675 13.5332903 13.8099832 13.553836 13.7498821 13.5785962 13.6976889 13.610205 13.635479 13.6491891 13.6117548 13.6644667 13.5843403 13.6718421 13.5542897 13.6718421 13.5353104 13.6718421 13.5163311 13.669208 13.4962974 13.6634131 13.4704644 13.6555109 13.4414683 13.6381261 13.4230162 13.6181072 13.3929656 13.5859716 13.3803127 13.5322367 13.3903296 13.4848236 13.399292 13.4389909 13.4377778 13.3968459 13.5052598 13.359969 13.5595617 13.3299407 13.6207173 13.3146631 13.6818729 13.3146631 13.8136736 13.3146631 13.9359847 13.385256 14.0013579 13.4985207L14.011902 13.5169592C14.0103204 13.5132715 14.0087388 13.509057 14.0066299 13.5053693 13.941784 13.3873632 13.817364 13.3136095 13.6818729 13.3136095 13.6201901 13.3136095 13.5585073 13.3294138 13.5042054 13.3594422 13.326538 13.4569025 13.2611648 13.6818515 13.3592246 13.8609678zM13.3950744 13.835154C13.4145809 13.8230373 13.4346146 13.8288322 13.4451587 13.8446366 13.4984062 13.9236585 13.5875035 13.9705449 13.6834545 13.9705449 13.7409196 13.9705449 13.7962759 13.9536868 13.8437242 13.9215513 13.8637579 13.9104882 13.8827372 13.9162831 13.8927541 13.9305071 13.9038253 13.9463115 13.9001349 13.9679108 13.8843188 13.9795007L13.8558499 13.9963587C13.8031296 14.0253334 13.7440828 14.0406109 13.6839817 14.0406109 13.5643066 14.0406109 13.4530667 13.9816079 13.3871663 13.8836208 13.3760951 13.8672896 13.3792583 13.8462171 13.3950744 13.835154zM19.794925 8.96148677L19.7721392 8.9602705C19.7209977 8.95783796 19.6718816 8.96695999 19.6313735 8.98702847 19.5812447 9.01135389 19.5376985 9.04358508 19.4921269 9.07764068 19.4703538 9.09406034 19.447568 9.1019661 19.4222504 9.1019661 19.4070599 9.1019661 19.3908566 9.09953356 19.3751597 9.0934522 19.3528803 9.08554644 19.3300945 9.06791051 19.3149039 9.04845017 19.2860419 9.01196203 19.2809784 8.95540541 19.2880673 8.91526846 19.2900927 8.90188948 19.299207 8.88851049 19.3057896 8.87573964 19.2774339 8.91344405 19.2546481 8.95844609 19.2424957 9.01013762 19.2207226 9.1019661 19.2293305 9.19865967 19.2678132 9.28197425 19.3199674 9.39630375 19.420225 9.46745562 19.5290905 9.46745562 19.5792193 9.46745562 19.6283354 9.45225223 19.6718816 9.42306172 19.8080901 9.33244951 19.8592316 9.12994034 19.794925 8.96148677zM19.5265588 9.4619824C19.428833 9.4619824 19.3381961 9.40420951 19.2840165 9.30751595 19.278953 9.29900205 19.2774339 9.28866374 19.278953 9.27832544 19.280472 9.26859527 19.2850292 9.26008137 19.2921181 9.25460815 19.3057896 9.24305357 19.32655 9.24852679 19.3356643 9.26494645 19.3781978 9.34096341 19.4500997 9.38657358 19.5265588 9.38657358 19.5726367 9.38657358 19.6166893 9.37015392 19.6546657 9.339139 19.673907 9.32636815 19.6901102 9.33366578 19.6987182 9.34947731 19.7032754 9.35738307 19.7047944 9.36772138 19.7032754 9.37745155 19.7017563 9.38718172 19.6971992 9.39569562 19.6901102 9.40177697L19.6789705 9.41029087C19.6754261 9.41333155 19.6713753 9.41637223 19.6673244 9.41880477 19.6247909 9.44677901 19.5761812 9.4619824 19.5265588 9.4619824zM13.2635528 14.8769085C13.2154907 14.8744734 13.164393 14.8829961 13.1229078 14.9030852 13.0733279 14.9280444 13.029819 14.9597 12.9817568 14.9962257 12.962026 15.0114447 12.9392597 15.0193586 12.9139639 15.0193586 12.8987863 15.0193586 12.882597 15.0163148 12.8669135 15.010836 12.8461709 15.0035308 12.8228987 14.9858767 12.8067094 14.9657876 12.7819194 14.9335233 12.7707892 14.8799523 12.7793898 14.8324689 12.7814135 14.8184674 12.79052 14.8056834 12.7970969 14.7928994 12.7687656 14.8312514 12.7459993 14.8756909 12.7338573 14.9268269 12.7115969 15.0187498 12.7207034 15.1155429 12.7586472 15.1989432 12.8112626 15.3133903 12.9109284 15.3846154 13.0202065 15.3846154 13.0697864 15.3846154 13.1188604 15.3693964 13.1623693 15.3401758 13.299473 15.2494704 13.3500647 15.0473616 13.2863191 14.8787348L13.2635528 14.8769085zM13.1821001 15.3188692L13.176535 15.3225217C13.170464 15.3267831 13.1648989 15.3316532 13.158322 15.3353057 13.1158249 15.3639175 13.0667509 15.3791365 13.0176769 15.3791365 12.9200349 15.3791365 12.8294757 15.3213042 12.7753425 15.2245112 12.7707892 15.2165973 12.7687656 15.2056396 12.7707892 15.1952906 12.772307 15.1855504 12.7778721 15.1770278 12.7849549 15.1715489 12.7945674 15.1630263 12.8183455 15.1654613 12.8269461 15.1831154 12.8694431 15.2592106 12.9412834 15.3042589 13.0181829 15.3042589 13.0642213 15.3042589 13.1087421 15.2878223 13.1466859 15.2567755 13.1623693 15.245209 13.1810883 15.2506879 13.1896889 15.2671245 13.1942421 15.2744296 13.1962658 15.2847785 13.194748 15.2945187 13.1942421 15.3036501 13.189183 15.3127816 13.1821001 15.3188692z"/>
    </g>
    <g fill="#FFF">
      <path d="M8.26710744 2.23371105C8.30942149 2.24985836 8.35173554 2.23371105 8.37289256 2.19065156L8.52099174 1.85694051C8.5368595 1.81388102 8.52099174 1.77082153 8.47867769 1.74929178L8.35173554 1.69008499C8.30942149 1.67393768 8.26710744 1.69008499 8.24595041 1.73314448L8.09785124 2.06685552C8.08198347 2.10991501 8.09785124 2.1529745 8.14016529 2.17450425L8.26710744 2.23371105zM8.60561983 1.38328612C8.64793388 1.39943343 8.69024793 1.38328612 8.71140496 1.34022663L8.81190083 1.10339943C8.8277686 1.06033994 8.81190083 1.01728045 8.76958678.995750708L8.64264463.936543909C8.60033058.920396601 8.55801653.936543909 8.5368595.979603399L8.43636364 1.21643059C8.42049587 1.25949008 8.43636364 1.30254958 8.47867769 1.32407932L8.60561983 1.38328612zM8.75900826 2.06685552C8.7907438 2.08300283 8.8277686 2.06685552 8.83834711 2.03456091L8.91768595 1.85155807C8.93355372 1.81926346 8.91768595 1.7815864 8.88595041 1.77082153L8.78545455 1.72776204C8.75371901 1.71161473 8.71669421 1.72776204 8.7061157 1.76005666L8.62677686 1.94305949C8.61090909 1.97535411 8.62677686 2.01303116 8.6585124 2.02379603L8.75900826 2.06685552zM8.90181818 1.65240793C8.94413223 1.66855524 8.98644628 1.65240793 9.00760331 1.60934844L9.10809917 1.37252125C9.12396694 1.32946176 9.10809917 1.28640227 9.06578512 1.26487252L8.93884298 1.20566572C8.89652893 1.18951841 8.85421488 1.20566572 8.83305785 1.24872521L8.73256198 1.48555241C8.71669421 1.5286119 8.73256198 1.57167139 8.77487603 1.59320113L8.90181818 1.65240793zM7.8968595 1.33484419C7.92859504 1.3509915 7.96561983 1.33484419 7.97619835 1.30254958L8.05553719 1.11954674C8.07140496 1.08725212 8.05553719 1.04957507 8.02380165 1.0388102L7.92330579.995750708C7.89157025.979603399 7.85454545.995750708 7.84396694 1.02804533L7.7646281 1.21104816C7.74876033 1.24334278 7.7646281 1.28101983 7.79636364 1.2917847L7.8968595 1.33484419zM7.80737536 1.76847524C7.83437198 1.77630868 7.87036749 1.76847524 7.88836524 1.74497493L7.96035624 1.59613964C7.96935511 1.57263933 7.96035624 1.54130559 7.93335961 1.52563872L7.83437198 1.48647153C7.80737536 1.4786381 7.77137986 1.48647153 7.75338211 1.50997184L7.68139111 1.65880713C7.67239223 1.68230744 7.68139111 1.71364119 7.70838773 1.72930806L7.80737536 1.76847524zM8.51041322 2.48130312C8.56330579 2.5082153 8.58975207 2.57818697 8.56330579 2.63201133L8.18247934 3.43937677C8.15603306 3.49320113 8.08727273 3.52011331 8.03438017 3.49320113 7.9814876 3.46628895 7.95504132 3.39631728 7.9814876 3.34249292L8.36231405 2.53512748C8.38876033 2.48130312 8.4522314 2.45439093 8.51041322 2.48130312zM9.54181818 2.52974504C9.52595041 2.60509915 9.45190083 2.64815864 9.3831405 2.63201133L8.89123967 2.51359773C8.81719008 2.49745042 8.77487603 2.42209632 8.7907438 2.35212465 8.80661157 2.27677054 8.88066116 2.23371105 8.94942149 2.24985836L9.44132231 2.36827195C9.5153719 2.38441926 9.55768595 2.45439093 9.54181818 2.52974504zM7.44727273 1.21104816C7.47371901 1.25949008 7.45256198 1.32407932 7.40495868 1.3509915L6.93421488 1.59858357C6.88661157 1.62549575 6.8231405 1.60396601 6.79669421 1.55552408 6.77024793 1.50708215 6.79140496 1.44249292 6.83900826 1.41558074L7.30975207 1.16798867C7.35735537 1.14107649 7.42082645 1.16260623 7.44727273 1.21104816zM8.61341496 2.40029726C8.64814957 2.41892865 8.68867327 2.40029726 8.70025148 2.36303447L8.74077518 2.26987751C8.75814248 2.23261473 8.74077518 2.18914148 8.70604058 2.17672055L8.59604766 2.12703684C8.56131306 2.10840545 8.52078935 2.12703684 8.50921115 2.16429963L8.46868745 2.25745659C8.45132015 2.29471937 8.46868745 2.33819262 8.50342205 2.35061355L8.61341496 2.40029726zM8.22479339 4.95184136C8.25123967 4.98951841 8.29884298 4.99490085 8.33586777 4.96798867L8.5368595 4.81189802C8.5738843 4.78498584 8.57917355 4.73654391 8.55272727 4.69886686L8.46809917 4.58583569C8.44165289 4.54815864 8.39404959 4.5427762 8.35702479 4.56968839L8.15603306 4.72577904C8.11900826 4.75269122 8.11371901 4.80113314 8.14016529 4.8388102L8.22479339 4.95184136zM8.9659425 4.91286539C8.99557383 4.92578367 9.03261299 4.91286539 9.04002082 4.88702884L9.11409913 4.73846864C9.1289148 4.71263208 9.11409913 4.68033639 9.08446781 4.67387725L8.988166 4.63512241C8.95853467 4.62220413 8.92149551 4.63512241 8.91408768 4.66095897L8.84000936 4.80951917C8.8251937 4.83535572 8.84000936 4.86765142 8.86964069 4.87411056L8.9659425 4.91286539zM9.12376556 4.29735486C9.14346999 4.31767572 9.17631071 4.31767572 9.19601514 4.29735486L9.31424175 4.18220334C9.33394618 4.16188249 9.33394618 4.1280144 9.31424175 4.10769354L9.2485603 4.03995736C9.22885587 4.0196365 9.19601514 4.0196365 9.17631071 4.03995736L9.05808411 4.15510887C9.03837968 4.17542973 9.03837968 4.20929782 9.05808411 4.22961867L9.12376556 4.29735486zM8.11900826 10.7002833C8.1031405 10.7487252 8.05024793 10.7756374 8.00264463 10.7541076L7.31504132 10.4957507C7.26743802 10.4796034 7.24099174 10.425779 7.26214876 10.3773371 7.27801653 10.3288952 7.33090909 10.301983 7.3785124 10.3235127L8.0661157 10.5818697C8.11371901 10.598017 8.14016529 10.6518414 8.11900826 10.7002833zM8.66380165 10.9357241C8.66380165 11.0142365 8.63735537 11.0796635 8.60561983 11.0796635L8.29355372 11.0796635C8.26181818 11.0796635 8.2353719 11.0142365 8.2353719 10.9357241 8.2353719 10.8572117 8.26181818 10.7917847 8.29355372 10.7917847L8.60561983 10.7917847C8.63735537 10.8048701 8.66380165 10.8572117 8.66380165 10.9357241zM9.22446281 3.77308782C9.20859504 3.71926346 9.1768595 3.67620397 9.1292562 3.65467422 9.10809917 3.64390935 9.06578512 3.52549575 9.06578512 3.52549575L9.42016529 3.54164306 9.40958678 3.83767705C9.40429752 3.83229462 9.22446281 3.78923513 9.22446281 3.77308782z" transform="translate(7 15)"/>
      <path d="M7.84396694 1.79773371L7.64297521 1.79773371C7.64297521 1.79773371 7.64297521 1.79773371 7.64297521 1.79773371 7.5953719 1.79773371 7.55305785 1.77082153 7.52661157 1.72776204L7.48429752 1.63626062C7.4631405 1.5878187 7.40495868 1.57167139 7.36264463 1.59320113L7.10347107 1.72776204C7.05586777 1.74929178 7.04 1.80849858 7.06115702 1.85155807L7.12991736 1.99688385C7.15107438 2.03456091 7.19338843 2.05609065 7.23041322 2.04532578 7.23570248 2.04532578 7.23570248 2.04532578 7.24099174 2.04532578L7.83867769 2.04532578C7.90743802 2.04532578 7.96033058 1.99150142 7.96033058 1.92152975 7.96561983 1.85694051 7.91272727 1.79773371 7.84396694 1.79773371zM8.1507438 2.43286119C8.11900826 2.41671388 8.07669421 2.41671388 8.05024793 2.43824363 8.04495868 2.43824363 8.03966942 2.44362606 8.03966942 2.44362606L7.64297521 2.63739377C7.62181818 2.64815864 7.60595041 2.66430595 7.60066116 2.68045326 7.58479339 2.70736544 7.57950413 2.74504249 7.5953719 2.77733711L7.75404959 3.12181303C7.7646281 3.14872521 7.78049587 3.17563739 7.8122314 3.18640227 7.86512397 3.21331445 7.9338843 3.1917847 7.96033058 3.1325779L8.19834711 2.58356941C8.23008264 2.52974504 8.20363636 2.45977337 8.1507438 2.43286119zM7.48958678 3.29943343L7.42082645 3.22407932C7.42082645 3.22407932 7.42082645 3.22407932 7.42082645 3.21869688 7.38380165 3.17563739 7.37322314 3.12181303 7.38380165 3.06798867L7.50545455 2.57818697C7.52132231 2.51359773 7.48429752 2.4490085 7.42082645 2.42747875 7.35735537 2.41133144 7.2938843 2.4490085 7.27272727 2.51359773L7.25157025 2.59433428C7.23570248 2.6266289 7.19867769 2.65354108 7.15636364 2.65354108 7.11404959 2.65354108 7.08231405 2.63201133 7.06115702 2.59971671 7.06115702 2.59971671 7.06115702 2.59971671 7.06115702 2.59971671L7.01884298 2.51898017C6.97652893 2.43286119 6.87603306 2.40056657 6.79140496 2.43824363 6.78082645 2.43824363 6.76495868 2.44362606 6.75438017 2.4490085L6.36297521 2.65892351C6.34710744 2.66430595 6.33652893 2.67507082 6.32595041 2.68583569 6.31008264 2.701983 6.29421488 2.71813031 6.28892562 2.73966006 6.26247934 2.80963173 6.29421488 2.89575071 6.36826446 2.92266289L6.47933884 2.96572238 6.47404959 2.96572238C6.47933884 2.96572238 6.47933884 2.96572238 6.47933884 2.96572238L6.4846281 2.96572238C6.50578512 2.97648725 6.51636364 2.99263456 6.51636364 3.01416431 6.51636364 3.03569405 6.50049587 3.05184136 6.4846281 3.0572238L6.46347107 3.0572238C6.46347107 3.0572238 6.46347107 3.0572238 6.46347107 3.0572238L6.40528926 3.06260623C6.34181818 3.06798867 6.29950413 3.12719547 6.30479339 3.18640227L6.32595041 3.38555241C6.33123967 3.45014164 6.38942149 3.49320113 6.44760331 3.4878187L6.98710744 3.42322946C7.02942149 3.42322946 7.07173554 3.43399433 7.10347107 3.46090652L7.18280992 3.55240793C7.21983471 3.59546742 7.28859504 3.60084986 7.33090909 3.5631728L7.47371901 3.43937677C7.52661157 3.41246459 7.53190083 3.34249292 7.48958678 3.29943343zM6.71735537 2.02917847L6.47404959 1.96997167C6.45818182 1.96458924 6.43702479 1.96458924 6.42115702 1.96997167 6.37884298 1.96997167 6.34181818 1.98611898 6.3153719 2.02379603L5.99801653 2.41133144C5.95041322 2.47053824 5.96099174 2.55665722 6.01917355 2.60509915 6.07735537 2.65354108 6.16198347 2.6427762 6.20958678 2.58356941L6.43173554 2.31444759C6.47404959 2.27677054 6.52694215 2.26062323 6.57983471 2.27677054L6.65917355 2.29830028C6.73322314 2.31444759 6.80198347 2.26600567 6.81785124 2.19603399 6.83371901 2.11529745 6.7861157 2.03994334 6.71735537 2.02917847zM11.2502479.209915014C11.0757025-.021529745 10.7530579-.0645892351 10.5256198.107648725L10.1289256.409065156C10.1289256.409065156 10.1289256.409065156 10.1289256.409065156L9.28793388 1.03342776C9.17157025 1.11954674 9.15041322 1.28640227 9.23504132 1.39943343 9.25090909 1.42096317 9.27206612 1.44249292 9.29322314 1.45864023 9.35140496 1.51246459 9.36198347 1.60934844 9.30909091 1.67393768 9.28264463 1.71161473 9.24033058 1.72776204 9.19801653 1.73314448 9.13983471 1.72776204 9.08165289 1.75467422 9.04991736 1.80849858 9.00231405 1.88385269 9.02876033 1.98611898 9.10280992 2.02917847L9.2985124 2.17450425C9.31438017 2.18526912 9.33553719 2.19065156 9.35669421 2.19603399 9.40429752 2.2121813 9.46247934 2.20679887 9.51008264 2.16912181L10.3828099 1.52322946C10.4039669 1.51246459 10.4198347 1.50169972 10.4409917 1.48555241L10.6049587 1.36175637 10.6790083 1.30793201C10.6842975 1.30254958 10.6895868 1.29716714 10.694876 1.2917847L11.1550413.941926346C11.3824793.769688385 11.4247934.441359773 11.2502479.209915014zM14.4766942 1.44249292C14.4766942 1.32407932 14.3814876 1.22719547 14.265124 1.22719547L14.2545455 1.22719547C14.1117355 1.22719547 14.0006612 1.11416431 13.9953719.968838527 13.9953719.952691218 13.9953719.941926346 13.9953719.925779037 13.9953719.694334278 13.8102479.511331445 13.5880992.511331445L13.461157.511331445 12.9957025.511331445 12.778843.511331445C12.6307438.511331445 12.5143802.624362606 12.5038017.769688385 12.4826446.83427762 12.4244628.87733711 12.3557025.87733711L11.5834711.87733711C11.3613223.87733711 11.1761983 1.04957507 11.1550413 1.27025496L11.1497521 1.27025496C11.1497521 1.46402266 11.0122314 1.62011331 10.8323967 1.6470255L10.7689256 1.6470255C10.5573554 1.6470255 10.3828099 1.82464589 10.3828099 2.03994334 10.3828099 2.25524079 10.5573554 2.43286119 10.7689256 2.43286119 10.9328926 2.4490085 11.0598347 2.59433428 11.0598347 2.76657224L11.1656198 4.09065156C11.1656198 4.13909348 11.1391736 4.18753541 11.0968595 4.21444759 11.0809917 4.21983003 11.065124 4.22521246 11.0492562 4.2305949 11.0492562 4.2305949 11.0439669 4.2305949 11.0439669 4.2305949 10.9646281 4.27365439 10.9170248 4.35977337 10.922314 4.45665722L11.0228099 5.52776204C11.0280992 5.56543909 11.0386777 5.59773371 11.0545455 5.62464589 11.0915702 5.71076487 11.1550413 5.78073654 11.2449587 5.81303116 11.4247934 5.88838527 11.6257851 5.79688385 11.6998347 5.61388102L11.9378512 5.01104816C11.953719 4.97875354 11.9854545 4.95184136 12.0224793 4.94107649L12.4667769 4.79575071C12.5408264 4.76883853 12.5831405 4.69886686 12.572562 4.62889518 12.5778512 4.59660057 12.5990083 4.57507082 12.6254545 4.56430595L13.0644628 4.41898017C13.0856198 4.41359773 13.1014876 4.4082153 13.1226446 4.40283286L13.1279339 4.40283286C13.1385124 4.39745042 13.1438017 4.39745042 13.1490909 4.39206799 13.3077686 4.32209632 13.4347107 4.18215297 13.482314 3.99915014L13.9583471 2.15835694C13.9583471 2.1529745 13.9636364 2.1529745 13.9636364 2.14759207 13.9689256 2.12067989 13.9795041 2.09915014 13.9953719 2.0776204 13.9953719 2.0776204 13.9953719 2.0776204 13.9953719 2.07223796L14.4343802 1.57167139C14.4608264 1.53937677 14.4766942 1.49631728 14.471405 1.45864023 14.4766942 1.45325779 14.4766942 1.44787535 14.4766942 1.44249292zM10.2717355 4.37053824L9.69520661 3.07875354C9.67404959 3.03569405 9.63702479 3.00339943 9.59471074 2.99263456 9.57355372 2.97648725 9.54710744 2.96572238 9.52066116 2.95495751L9.00231405 2.72351275C8.80132231 2.63739377 8.5738843 2.73966006 8.4892562 2.94419263 8.4046281 3.14872521 8.50512397 3.38016997 8.7061157 3.46628895L9.18214876 3.67620397 9.40958678 4.19291785C9.43603306 4.25750708 9.41487603 4.33286119 9.37256198 4.38130312L9.19272727 4.5427762C9.12396694 4.59660057 9.10809917 4.69886686 9.16099174 4.76883853L9.4677686 5.23172805C9.48363636 5.25325779 9.51008264 5.27478754 9.53123967 5.28555241 9.53123967 5.28555241 9.53652893 5.28555241 9.53652893 5.29093484 9.61057851 5.33937677 9.71107438 5.32322946 9.75867769 5.24787535L10.2452893 4.55354108C10.2876033 4.50509915 10.2981818 4.43512748 10.2717355 4.37053824z" transform="translate(7 15)"/>
      <path d="M11.5993388 13.2031161L10.5361983 12.831728C10.4357025 12.7832861 10.3775207 12.670255 10.3933884 12.5572238 10.4304132 12.4226629 10.3616529 12.2773371 10.2241322 12.2288952L8.25652893 11.5399433C8.11900826 11.4915014 7.97090909 11.5668555 7.92330579 11.7067989 7.91272727 11.7283286 7.91272727 11.7552408 7.90743802 11.782153 7.90743802 11.81983 7.88099174 11.8467422 7.84396694 11.8467422 7.80694215 11.8467422 7.78049587 11.81983 7.78049587 11.782153 7.78049587 11.733711 7.74347107 11.696034 7.69586777 11.696034L7.35206612 11.696034C7.28330579 11.6906516 7.21983471 11.6475921 7.18809917 11.5776204 7.15636364 11.5076487 7.16694215 11.4269122 7.21454545 11.3730878 7.24628099 11.3407932 7.26214876 11.2977337 7.26214876 11.2546742 7.26214876 11.1631728 7.18809917 11.0878187 7.09818182 11.0878187L7.02942149 11.0878187C6.96066116 11.0878187 6.88661157 11.0501416 6.84958678 10.9855524 6.8231405 10.931728 6.81785124 10.8779037 6.83371901 10.8240793L6.88132231 10.7271955C6.92363636 10.6356941 6.89190083 10.5280453 6.80198347 10.4796034 6.71206612 10.4365439 6.60628099 10.4688385 6.55867769 10.5603399L6.5322314 10.6195467C6.47404959 10.7110482 6.37355372 10.7756374 6.25719008 10.7756374 6.11966942 10.7756374 6.00330579 10.6949008 5.95570248 10.5711048 5.95570248 10.5711048 5.95570248 10.5711048 5.95570248 10.5711048L5.87107438 10.0866856C5.85520661 9.89291785 5.98743802 9.72067989 6.16727273 9.68300283L7.15107438 9.68300283C7.23570248 9.68300283 7.30975207 9.74220963 7.33090909 9.82832861L7.41024793 10.1135977C7.4261157 10.178187 7.49487603 10.215864 7.55834711 10.1997167 7.62181818 10.1835694 7.65884298 10.1135977 7.64297521 10.0490085L7.5107438 9.58073654C7.47900826 9.5 7.5107438 9.40849858 7.57950413 9.36543909L8.03438017 9.15552408C8.17719008 9.09093484 8.24066116 8.91869688 8.18247934 8.7733711 8.1507438 8.62804533 8.21950413 8.48271955 8.34115702 8.41274788L10.3246281 7.4815864C10.467438 7.41161473 10.5309091 7.23937677 10.467438 7.08866856 10.467438 7.08328612 10.4621488 7.07790368 10.4621488 7.07790368 10.4621488 7.06175637 10.4568595 7.04560907 10.4515702 7.03484419L9.84330579 5.70538244C9.81157025 5.63541076 9.72694215 5.60311615 9.65818182 5.63541076 9.61057851 5.65694051 9.58413223 5.7 9.57884298 5.74844193 9.57884298 5.85070822 9.49950413 5.93144476 9.39900826 5.93144476 9.30909091 5.93144476 9.22975207 5.86147309 9.21917355 5.76997167L9.23504132 5.50084986C9.24033058 5.32322946 9.10280992 5.17252125 8.92297521 5.16713881 8.74842975 5.16175637 8.60033058 5.30169972 8.59504132 5.48470255L8.54214876 6.25977337C8.53157025 6.29745042 8.51570248 6.33512748 8.48396694 6.3674221L8.01322314 6.7388102C7.97090909 6.75495751 7.92330579 6.74419263 7.89157025 6.70651558 7.8492562 6.65807365 7.8492562 6.58810198 7.8968595 6.53966006L7.89157025 6.53966006C7.8968595 6.53427762 7.90214876 6.52351275 7.90743802 6.51813031 7.98677686 6.38356941 7.94446281 6.21133144 7.8122314 6.1305949L7.44198347 5.90453258C7.22512397 5.65694051 7.23570248 5.27478754 7.47371901 5.04872521L8.80661157 4.00453258C8.8753719 3.95070822 8.89123967 3.84305949 8.83834711 3.77308782 8.78545455 3.70311615 8.67966942 3.68696884 8.61090909 3.7407932L8.59504132 3.75155807C8.50512397 3.82691218 8.37289256 3.82152975 8.29355372 3.73541076 8.22479339 3.64390935 8.09256198 3.63314448 8.00264463 3.70311615L7.91801653 3.76770538C7.86512397 3.81076487 7.79107438 3.81076487 7.73818182 3.76770538 7.73289256 3.76232295 7.72760331 3.75694051 7.72231405 3.75155807 7.72231405 3.75155807 7.71702479 3.75155807 7.71702479 3.74617564 7.65884298 3.70311615 7.57950413 3.69773371 7.52132231 3.74617564L7.32561983 3.90226629C7.30975207 3.91303116 7.28859504 3.92379603 7.26214876 3.92379603 7.19867769 3.92379603 7.15107438 3.86997167 7.15107438 3.81076487L7.15107438 3.81614731C7.14578512 3.68696884 7.04 3.57932011 6.91305785 3.57393768 6.77553719 3.56855524 6.65917355 3.67620397 6.65917355 3.81614731L6.64859504 3.99915014 6.64859504 3.99376771C6.64859504 4.03144476 6.6168595 4.06373938 6.57983471 4.06373938 6.54809917 4.06373938 6.51636364 4.0368272 6.51107438 4.00453258 6.51107438 3.83767705 6.44760331 3.66543909 6.32066116 3.53626062L5.70181818 2.89575071C5.48495868 2.67507082 5.15173554 2.63739377 4.89785124 2.79348442 4.79206612 2.85807365 4.6492562 2.83654391 4.56991736 2.73427762L3.67603306 1.84617564C3.62842975 1.79773371 3.57553719 1.77082153 3.51735537 1.76543909 3.42214876 1.73314448 3.31107438 1.72776204 3.21057851 1.77082153L3.10479339 1.80849858C3.08892562 1.81388102 3.07305785 1.81388102 3.06247934 1.81926346L2.77157025 1.92691218 2.7292562 1.93767705 2.46479339 2.03456091C2.33785124 2.08838527 2.27966942 2.22832861 2.32727273 2.35750708 2.34842975 2.45439093 2.30082645 2.55127479 2.21619835 2.59433428L1.79834711 2.75042493C1.67140496 2.80424929 1.60793388 2.94957507 1.66082645 3.07875354 1.71371901 3.20793201 1.85652893 3.27252125 1.98347107 3.21869688L2.09454545 3.18101983C2.14214876 3.17563739 2.18446281 3.20254958 2.20033058 3.2509915 2.21619835 3.29943343 2.20033058 3.34787535 2.15801653 3.37478754L1.71371901 3.55779037C1.40165289 3.68696884 1.24826446 4.0529745 1.37520661 4.37053824 1.38578512 4.40283286 1.40165289 4.42974504 1.41752066 4.45665722 1.4968595 4.64504249 1.4122314 4.86572238 1.23239669 4.95184136L.116363636 5.40396601C.0581818182 5.42549575.0317355372 5.49008499.0581818182 5.54929178.079338843 5.60849858.142809917 5.63541076.200991736 5.60849858L2.08396694 4.84419263C2.12628099 4.82804533 2.14743802 4.79036827 2.15272727 4.74730878 2.15272727 4.73116147 2.16330579 4.71501416 2.17917355 4.70963173L2.68694215 4.49971671C3.00429752 4.42436261 3.32165289 4.61813031 3.40099174 4.94107649L3.40628099 4.94107649 3.94578512 7.1694051C3.95636364 7.2878187 3.90876033 7.40623229 3.81884298 7.4815864 3.81884298 7.4815864 3.81355372 7.48696884 3.81355372 7.49235127 3.59669421 7.68073654 3.51735537 7.99830028 3.63900826 8.27280453L4.11504132 9.42464589 4.43768595 10.2050992C4.46413223 10.2643059 4.52760331 10.2912181 4.58578512 10.2696884 4.64396694 10.2427762 4.67041322 10.178187 4.6492562 10.1189802L4.36892562 9.43002833C4.36363636 9.39773371 4.37950413 9.36005666 4.41123967 9.34929178 4.44826446 9.33314448 4.49057851 9.34929178 4.50644628 9.38696884L4.50115702 9.37620397 5.05123967 10.4688385C5.06710744 10.5172805 5.06710744 10.5657224 5.05652893 10.6141643 5.05123967 10.6195467 5.05123967 10.6249292 5.04595041 10.6303116 5.01421488 10.7056657 5.04595041 10.7971671 5.12 10.8348442L6.7014876 11.572238C6.70677686 11.5776204 6.71206612 11.5776204 6.71735537 11.5830028L7.61123967 11.9974504C7.61123967 11.9974504 7.61123967 11.9974504 7.61123967 11.9974504 7.70644628 12.0458924 7.76991736 12.1481586 7.76991736 12.2611898 7.76991736 12.3688385 7.71702479 12.4603399 7.63239669 12.5141643 7.38909091 12.6325779 7.27801653 12.9286119 7.38909091 13.176204L7.68 13.8543909C7.69586777 13.8866856 7.71173554 13.9189802 7.73289256 13.9512748L7.8122314 14.1288952C7.88628099 14.3011331 8.02909091 14.4195467 8.19305785 14.4679887 8.19305785 14.4679887 8.19305785 14.4679887 8.19305785 14.4679887 8.33586777 14.5056657 8.43636364 14.6456091 8.42578512 14.8016997L8.36760331 18.0903683C8.35702479 18.5694051 8.72727273 18.9677054 9.20330579 18.9784703 9.25619835 18.9784703 9.30909091 18.9784703 9.35669421 18.9677054 9.37256198 18.9623229 9.37785124 18.9515581 9.37785124 18.9354108 9.37785124 18.9246459 9.37256198 18.913881 9.36727273 18.9084986 9.1768595 18.827762 9.07636364 18.6232295 9.11338843 18.4240793L9.53652893 16.9923513C9.55239669 16.927762 9.62115702 16.890085 9.6846281 16.9062323 9.79041322 16.9116147 9.89619835 16.8577904 9.94909091 16.7555241L10.7900826 15.2161473C10.8323967 15.1354108 10.922314 15.0923513 11.0069421 15.1192635 11.0069421 15.1192635 11.0122314 15.1192635 11.0122314 15.1192635 11.0175207 15.1246459 11.0280992 15.1246459 11.0333884 15.1246459 11.0386777 15.1246459 11.0386777 15.1246459 11.0439669 15.1300283 11.1444628 15.1515581 11.2502479 15.0977337 11.2872727 15.0008499L11.8003306 13.7144476C11.8056198 13.7036827 11.8056198 13.6929178 11.8109091 13.6875354 11.8109091 13.682153 11.8161983 13.6767705 11.8161983 13.6713881 11.8849587 13.472238 11.7844628 13.2677054 11.5993388 13.2031161zM20.2790083.699716714C20.3160331.613597734 20.4165289.570538244 20.501157.608215297L21.2363636.925779037C21.3209917.963456091 21.3633058 1.06572238 21.326281 1.15184136 21.2892562 1.23796034 21.1887603 1.28101983 21.1041322 1.24334278L20.3689256.925779037C20.2790083.893484419 20.2419835.79121813 20.2790083.699716714zM21.7643139 1.34899869C21.736352 1.41600868 21.6636509 1.44037595 21.607727 1.40991686L21.5573955 1.37945778C21.4958792 1.34899869 21.4735097 1.26980506 21.5014716 1.20888689 21.5294336 1.14187689 21.6021346 1.11750962 21.6580585 1.14796871L21.70839 1.1784278C21.7643139 1.20279507 21.7922759 1.2819887 21.7643139 1.34899869zM19.8664463 13.978187C19.8029752 13.9620397 19.7395041 13.9943343 19.7183471 14.0589235L19.6760331 14.1988669C19.6601653 14.2473088 19.6072727 14.274221 19.5596694 14.2580737 19.5596694 14.2580737 19.5543802 14.2580737 19.5543802 14.2580737 19.4909091 14.2419263 19.427438 14.274221 19.406281 14.3388102L19.3375207 14.5648725C19.3322314 14.5756374 19.3269421 14.5864023 19.3216529 14.6025496L19.2105785 15.0008499C19.1735537 15.1246459 19.2476033 15.2538244 19.3692562 15.2915014 19.4909091 15.3291785 19.6178512 15.2538244 19.654876 15.1300283L19.6813223 15.0385269C19.6813223 15.0385269 19.6813223 15.0385269 19.6813223 15.0385269L19.9404959 14.1235127C19.9669421 14.0643059 19.9299174 13.9943343 19.8664463 13.978187zM19.0127796 13.090085C18.9623594 13.127762 18.9343482 13.1977337 18.9511549 13.2623229L18.8447124 13.2838527 18.766281 12.9447592 19.0519953 12.8855524C19.046393 12.8909348 19.0351886 13.0739377 19.0127796 13.090085zM19.8981818 3.86458924C19.9970829 3.86458924 20.074006 3.78923513 20.074006 3.69235127L20.1838961 3.69235127 20.1838961 4.0368272 19.8981818 4.0368272 19.8981818 3.86458924zM14.1170248 5.08640227C14.1170248 5.17790368 14.0429752 5.25325779 13.9530579 5.25325779L13.4135537 5.25325779C13.3236364 5.25325779 13.2495868 5.17790368 13.2495868 5.08640227 13.2495868 4.99490085 13.3236364 4.91954674 13.4135537 4.91954674L13.9530579 4.91954674C14.0482645 4.92492918 14.1170248 5.00028329 14.1170248 5.08640227zM19.1206612 3.18640227L19.7183471 2.49206799C19.7712397 2.43286119 19.7659504 2.34135977 19.7024793 2.28753541 19.6442975 2.23371105 19.5543802 2.23909348 19.5014876 2.30368272L18.7609917 3.16487252C18.7557025 3.17025496 18.7504132 3.17563739 18.7504132 3.18101983 18.7080992 3.21869688 18.6975207 3.27790368 18.7292562 3.32096317L19.0995041 3.88611898C19.1312397 3.93456091 19.2 3.95070822 19.2476033 3.91303116 19.2952066 3.88073654 19.3110744 3.81076487 19.2740496 3.76232295L19.1153719 3.52011331C19.0624793 3.41784703 19.0624793 3.29405099 19.1206612 3.18640227z" transform="translate(7 15)"/>
      <path d="M16.2433058,0.61898017 L14.4238017,0.387535411 C14.3021488,0.371388102 14.1857851,0.457507082 14.1646281,0.581303116 C14.1646281,0.586685552 14.1593388,0.586685552 14.1593388,0.592067989 C14.1540496,0.645892351 14.122314,0.699716714 14.0694215,0.726628895 L13.8366942,0.812747875 C13.7361983,0.845042493 13.625124,0.796600567 13.5828099,0.699716714 C13.5828099,0.699716714 13.5828099,0.694334278 13.5828099,0.694334278 C13.5457851,0.570538244 13.4135537,0.505949008 13.2919008,0.543626062 L12.9533884,0.656657224 C12.8899174,0.678186969 12.821157,0.656657224 12.778843,0.613597734 C12.7418182,0.559773371 12.6783471,0.522096317 12.6095868,0.53286119 L11.6786777,0.66203966 L11.6786777,0.667422096 C11.6522314,0.672804533 11.6363636,0.694334278 11.6363636,0.726628895 L11.6310744,0.931161473 C11.6152066,1.03342776 11.5570248,1.11954674 11.4565289,1.16798867 C11.3719008,1.20566572 11.2766942,1.20028329 11.1973554,1.16260623 L10.6261157,0.74815864 C10.5573554,0.694334278 10.4568595,0.715864023 10.4092562,0.785835694 C10.3828099,0.823512748 10.3775207,0.866572238 10.3828099,0.904249292 C10.3775207,0.952691218 10.3510744,0.995750708 10.3034711,1.01728045 L10.2135537,1.04419263 C10.1659504,1.06033994 10.1183471,1.0388102 10.0919008,1.00113314 C10.0813223,0.952691218 10.033719,0.925779037 9.9861157,0.936543909 L9.46247934,1.0388102 C9.4307438,1.04957507 9.40429752,1.07110482 9.38842975,1.10339943 L9.30380165,1.26487252 C9.2985124,1.28101983 9.27735537,1.2917847 9.2614876,1.28640227 C9.24561983,1.28101983 9.23504132,1.25949008 9.24033058,1.24334278 L9.37256198,0.726628895 C9.39371901,0.635127479 9.3461157,0.543626062 9.2614876,0.516713881 L9.2614876,0.511331445 L8.73785124,0.107648725 C8.58975207,-1.38777878e-17 8.38876033,0.0322946176 8.27768595,0.183002833 C8.20363636,0.285269122 8.19834711,0.414447592 8.24595041,0.522096317 C8.26710744,0.57592068 8.24595041,0.640509915 8.19834711,0.683569405 L7.56892562,1.14645892 C7.48958678,1.20566572 7.46842975,1.31869688 7.52661157,1.39943343 C7.55305785,1.46402266 7.53719008,1.54475921 7.48429752,1.59320113 L7.41024793,1.6470255 C7.35206612,1.69008499 7.33090909,1.76543909 7.35206612,1.83541076 C7.35735537,1.84617564 7.36264463,1.85694051 7.36793388,1.86770538 C7.38909091,1.92152975 7.36793388,1.98611898 7.32033058,2.02379603 L6.96595041,2.28215297 L6.97652893,2.08300283 C6.98181818,1.9592068 6.88661157,1.85694051 6.77024793,1.85155807 C6.64859504,1.84617564 6.54809917,1.94305949 6.54280992,2.06147309 L6.51636364,2.71813031 C6.47933884,2.66968839 6.42115702,2.63739377 6.35768595,2.63739377 C6.23603306,2.63201133 6.13553719,2.72889518 6.13024793,2.84730878 L6.12495868,2.96572238 C6.11966942,2.98725212 6.10380165,3.00339943 6.08264463,3.00878187 C6.06677686,3.01416431 6.05619835,3.01416431 6.04033058,3.00878187 C5.87636364,2.90651558 5.65421488,2.91728045 5.50082645,3.05184136 L4.47471074,3.94532578 C4.44826446,3.95609065 4.42181818,3.95609065 4.3953719,3.94532578 C4.37421488,3.93456091 4.35834711,3.9184136 4.3477686,3.89688385 L4.3477686,3.8 C4.3477686,3.7407932 4.3107438,3.68696884 4.25785124,3.66543909 C4.22082645,3.64390935 4.20495868,3.59546742 4.2261157,3.55779037 C4.24198347,3.52549575 4.27900826,3.50934844 4.31603306,3.52011331 L4.43239669,3.58470255 C4.53289256,3.63852691 4.65454545,3.60084986 4.71272727,3.50396601 C4.76561983,3.40169972 4.72859504,3.27790368 4.63338843,3.21869688 L3.85586777,2.78810198 C3.83471074,2.77195467 3.81884298,2.7611898 3.79768595,2.75042493 C3.50677686,2.58895184 3.14181818,2.69660057 2.9831405,2.99263456 L2.79801653,3.34249292 L2.80330579,3.34249292 L2.40661157,4.10679887 C2.40661157,4.10679887 2.40661157,4.10679887 2.40661157,4.10679887 C2.37487603,4.14985836 2.32198347,4.17677054 2.26380165,4.1713881 L2.07867769,4.16600567 C2.0046281,4.16062323 1.93586777,4.21983003 1.93586777,4.30056657 L1.92,4.86033994 C1.91471074,4.93569405 1.97289256,5.00566572 2.0522314,5.00566572 L2.23735537,5.01643059 C2.3061157,5.02181303 2.36429752,4.9733711 2.38016529,4.90878187 C2.38545455,4.898017 2.3907438,4.89263456 2.40132231,4.89263456 C2.41190083,4.89263456 2.41719008,4.898017 2.42247934,4.90339943 L2.54942149,5.28016997 C2.57057851,5.35552408 2.64991736,5.39320113 2.72396694,5.37167139 L2.90380165,5.31784703 C2.97785124,5.29631728 3.01487603,5.21558074 2.99371901,5.14022663 L2.91966942,4.93031161 C2.91966942,4.91416431 2.92495868,4.89263456 2.94082645,4.88186969 C2.9461157,4.87648725 2.95669421,4.87110482 2.96727273,4.87110482 L3.05719008,4.87110482 C3.12066116,4.87110482 3.17355372,4.81728045 3.17355372,4.75269122 C3.17355372,4.68810198 3.12066116,4.63427762 3.05719008,4.63427762 L3.00958678,4.63427762 C2.98842975,4.62889518 2.96727273,4.61813031 2.95669421,4.59660057 C2.9461157,4.58045326 2.9461157,4.55892351 2.95140496,4.5427762 L3.36396694,3.74617564 C3.39570248,3.71388102 3.44330579,3.70311615 3.48033058,3.72464589 C3.52264463,3.74617564 3.54380165,3.79461756 3.53322314,3.83767705 L3.33752066,4.33286119 C3.32694215,4.35439093 3.31636364,4.37592068 3.31107438,4.40283286 C3.28991736,4.47818697 3.3322314,4.56430595 3.40628099,4.59121813 C3.41157025,4.59121813 3.4168595,4.59660057 3.42214876,4.59660057 C3.44330579,4.601983 3.45917355,4.60736544 3.48033058,4.60736544 L3.91933884,4.60736544 C3.95107438,4.60736544 3.97752066,4.63427762 3.97752066,4.66657224 C3.97752066,4.69886686 3.95107438,4.72577904 3.91933884,4.72577904 L3.82942149,4.72577904 C3.59140496,4.72577904 3.40099174,4.91954674 3.40099174,5.16175637 C3.40099174,5.30169972 3.46446281,5.42549575 3.57024793,5.50623229 L2.64991736,5.50623229 C2.58115702,5.50623229 2.51768595,5.4631728 2.49123967,5.39858357 L2.4753719,5.33937677 C2.4753719,5.33399433 2.4753719,5.33399433 2.4753719,5.3286119 L2.44892562,5.21558074 C2.43834711,5.16175637 2.38016529,5.12407932 2.32727273,5.13484419 C2.27438017,5.14560907 2.23735537,5.20481586 2.24793388,5.25864023 L2.26909091,5.34475921 C2.27438017,5.42011331 2.23206612,5.49008499 2.16859504,5.51699717 C2.16330579,5.51699717 2.15801653,5.5223796 2.15272727,5.5223796 C2.15272727,5.5223796 2.15272727,5.5223796 2.15272727,5.5223796 C2.02049587,5.57620397 1.92528926,5.69461756 1.90413223,5.83456091 C1.90413223,5.83994334 1.90413223,5.84532578 1.90413223,5.85070822 C1.90413223,5.85609065 1.90413223,5.86685552 1.90413223,5.87223796 C1.88297521,6.03909348 1.7507438,6.17365439 1.58677686,6.19518414 L1.28528926,6.19518414 C1.20066116,6.19518414 1.13190083,6.26515581 1.13190083,6.35127479 C1.13190083,6.43739377 1.20066116,6.50736544 1.28528926,6.50736544 L1.32231405,6.50736544 C1.40694215,6.52351275 1.47041322,6.59886686 1.47041322,6.68498584 C1.47041322,6.77110482 1.4122314,6.84107649 1.33289256,6.86260623 L0.830413223,6.86260623 C0.745785124,6.86260623 0.68231405,6.92719547 0.677024793,7.01331445 L0.671735537,7.49773371 C0.671735537,7.58385269 0.735206612,7.64844193 0.819834711,7.65382436 L1.48099174,7.65382436 C1.56561983,7.65382436 1.62909091,7.58923513 1.63438017,7.50311615 L1.63438017,7.40084986 C1.63438017,7.33626062 1.68198347,7.27705382 1.74545455,7.26628895 C1.7507438,7.26628895 1.75603306,7.26628895 1.76132231,7.26628895 C1.76132231,7.26628895 1.76661157,7.26628895 1.76661157,7.26628895 C1.83008264,7.25014164 1.88297521,7.19631728 1.88826446,7.13172805 C1.88826446,7.0509915 1.95173554,6.98101983 2.03636364,6.98101983 L2.27438017,6.98101983 C2.29553719,6.98101983 2.31669421,6.97563739 2.33256198,6.95949008 C2.40132231,6.88951841 2.50710744,6.88951841 2.57586777,6.95949008 L2.90909091,7.29858357 C2.93553719,7.33626062 2.9461157,7.38470255 2.93024793,7.43314448 C2.91438017,7.48696884 2.86677686,7.52464589 2.8138843,7.53002833 L2.77157025,7.53002833 C2.73983471,7.53002833 2.71338843,7.55694051 2.71338843,7.58923513 C2.71338843,7.62152975 2.73983471,7.64844193 2.77157025,7.64844193 L3.02545455,7.65382436 C3.04661157,7.65382436 3.06247934,7.64305949 3.07305785,7.62691218 C3.07834711,7.62152975 3.07834711,7.62152975 3.08363636,7.61614731 L3.22644628,7.43314448 C3.22644628,7.43314448 3.22644628,7.43314448 3.23173554,7.43314448 C3.2846281,7.37932011 3.2846281,7.29320113 3.23173554,7.23399433 L2.76628099,6.75495751 C2.75041322,6.72266289 2.75570248,6.69036827 2.78214876,6.66345609 C2.80859504,6.63654391 2.84561983,6.63116147 2.87206612,6.64730878 L3.31636364,7.09943343 C3.33752066,7.12634561 3.34809917,7.15864023 3.35338843,7.19093484 L3.35338843,7.33087819 C3.35338843,7.35240793 3.35867769,7.36855524 3.37454545,7.37932011 C3.37454545,7.37932011 3.37454545,7.37932011 3.37454545,7.37932011 L3.61256198,7.66997167 C3.6231405,7.68611898 3.64958678,7.69150142 3.66545455,7.68611898 C3.69190083,7.68073654 3.71834711,7.66458924 3.72363636,7.63229462 L3.79239669,7.32549575 C3.81355372,7.26628895 3.87702479,7.2286119 3.94049587,7.24475921 C4.00396694,7.26090652 4.04628099,7.32549575 4.03041322,7.39008499 C4.02512397,7.41161473 4.01983471,7.43314448 4.01983471,7.45467422 C4.01983471,7.56770538 4.0938843,7.6592068 4.19966942,7.68611898 C4.20495868,7.69150142 4.21553719,7.69150142 4.2261157,7.69150142 L4.65454545,7.78300283 L4.63867769,7.7776204 C4.76561983,7.79915014 4.85553719,7.92832861 4.82909091,8.05750708 C4.80793388,8.17592068 4.70743802,8.25665722 4.59107438,8.25665722 L3.7077686,8.06827195 C3.61785124,8.04674221 3.53322314,8.09518414 3.49619835,8.18130312 C3.48033058,8.23512748 3.42743802,8.27280453 3.37454545,8.2674221 L2.8138843,8.12209632 C2.75041322,8.10594901 2.70280992,8.05212465 2.68694215,7.99291785 C2.67636364,7.86373938 2.56528926,7.76685552 2.43834711,7.77223796 L1.91471074,7.79376771 C1.90942149,7.79376771 1.90413223,7.79376771 1.89884298,7.79376771 L1.12132231,7.81529745 C0.883305785,7.82606232 0.692892562,8.03597734 0.703471074,8.27818697 C0.703471074,8.28356941 0.703471074,8.28895184 0.703471074,8.29433428 C0.703471074,8.29971671 0.703471074,8.30509915 0.703471074,8.31048159 C0.703471074,8.31586402 0.703471074,8.32124646 0.703471074,8.33201133 C0.708760331,8.39121813 0.68231405,8.44504249 0.634710744,8.47733711 C0.238016529,8.73031161 -0.0158677686,9.1878187 0.0052892562,9.69915014 C0.0370247934,10.4580737 0.666446281,11.0447592 1.4122314,11.0070822 L1.94115702,10.9855524 C1.98347107,10.98017 2.02049587,11.0070822 2.03636364,11.0447592 C2.05752066,11.1201133 2.12628099,11.1685552 2.20561983,11.1631728 L2.29024793,11.1577904 C2.37487603,11.1524079 2.44892562,11.2169972 2.46479339,11.3031161 L2.48595041,11.6691218 C2.49652893,11.7983003 2.58115702,11.905949 2.69752066,11.9382436 C2.69752066,11.9382436 2.70280992,11.9382436 2.70280992,11.9382436 C2.76099174,11.9543909 2.80859504,11.9974504 2.82975207,12.0620397 L2.8985124,12.6164306 C2.8985124,12.621813 2.8985124,12.6271955 2.8985124,12.6271955 L2.90380165,12.6487252 C2.90909091,12.7133144 2.87206612,12.7779037 2.8138843,12.8101983 C2.8138843,12.8101983 2.8138843,12.8101983 2.8138843,12.8101983 C2.67636364,12.8963173 2.61289256,13.0685552 2.67107438,13.2246459 L3.20528926,14.7747875 C3.25818182,14.9254958 3.40099174,15.0169972 3.55438017,15.0062323 C3.56495868,15.0062323 3.58082645,15.0062323 3.59669421,15.0062323 L4.06743802,14.9254958 C4.10975207,14.9201133 4.14677686,14.8932011 4.17322314,14.8609065 C4.1785124,14.8555241 4.18909091,14.8501416 4.19438017,14.8447592 L4.67570248,14.3226629 C4.70743802,14.2849858 4.71801653,14.2311615 4.70214876,14.188102 C4.67041322,14.1342776 4.68628099,14.0643059 4.74446281,14.0320113 L4.91900826,13.9566572 C4.96132231,13.9405099 4.98247934,13.8974504 4.98247934,13.8543909 C4.98247934,13.8382436 4.98247934,13.8274788 4.97719008,13.8113314 L4.92429752,13.6444759 C4.89256198,13.5745042 4.91371901,13.4937677 4.96661157,13.4453258 L5.4585124,13.0685552 C5.51140496,13.0308782 5.53256198,12.9716714 5.53256198,12.9124646 C5.53256198,12.9016997 5.53256198,12.8855524 5.53256198,12.8694051 L5.38446281,11.8951841 L6.16727273,11.2977337 C6.2307438,11.2439093 6.25719008,11.1631728 6.23603306,11.0824363 C6.23603306,11.0609065 6.24132231,11.0393768 6.25719008,11.0232295 L6.62743802,10.7379603 C6.73322314,10.6572238 6.75438017,10.5011331 6.67504132,10.3934844 C6.61157025,10.3073654 6.50049587,10.2804533 6.40528926,10.3127479 C6.34181818,10.3181303 6.28363636,10.2858357 6.25190083,10.2266289 C6.22016529,10.1566572 6.24132231,10.0759207 6.30479339,10.0328612 L7.17752066,9.63456091 C7.32561983,9.56458924 7.39438017,9.3815864 7.32561983,9.23087819 C7.2568595,9.08016997 7.07702479,9.0101983 6.92892562,9.08016997 L6.77024793,9.15552408 C6.69619835,9.1878187 6.61157025,9.16628895 6.56396694,9.10169972 L6.54809917,9.0694051 C6.54809917,9.0694051 6.54809917,9.0694051 6.54809917,9.0694051 L6.1831405,8.43966006 C6.16727273,8.39121813 6.1831405,8.33739377 6.22545455,8.31048159 C6.2677686,8.27818697 6.32595041,8.28895184 6.36297521,8.3266289 L6.60628099,8.70878187 C6.62214876,8.73031161 6.63801653,8.74645892 6.65917355,8.76260623 C6.68561983,8.78951841 6.72264463,8.80566572 6.75966942,8.80566572 L7.73289256,8.81643059 C7.73818182,8.81643059 7.73818182,8.81643059 7.74347107,8.81643059 C7.8122314,8.81643059 7.88099174,8.84872521 7.92859504,8.90254958 L8.2353719,9.34390935 C8.26710744,9.39235127 8.32,9.41926346 8.37289256,9.42464589 C8.42578512,9.43541076 8.47338843,9.47847025 8.49454545,9.53229462 L8.96528926,10.4688385 C8.99173554,10.5172805 9.02876033,10.5495751 9.07636364,10.5657224 C9.10280992,10.5764873 9.1292562,10.5818697 9.15570248,10.5872521 C9.27735537,10.5926346 9.3831405,10.4957507 9.38842975,10.3719547 L9.40958678,9.96827195 C9.40958678,9.96288952 9.40958678,9.95750708 9.41487603,9.95212465 C9.41487603,9.90906516 9.4307438,9.8713881 9.46247934,9.83909348 L9.48363636,9.81756374 C9.48363636,9.81756374 9.48892562,9.81756374 9.48892562,9.8121813 L10.033719,9.33314448 C10.054876,9.31699717 10.0707438,9.30623229 10.0760331,9.29546742 C10.1077686,9.26855524 10.1447934,9.25240793 10.1871074,9.25240793 L10.2770248,9.25240793 C10.3140496,9.25240793 10.3510744,9.26855524 10.3828099,9.29546742 C10.3933884,9.30623229 10.4198347,9.3223796 10.4409917,9.34390935 L10.5838017,9.47847025 C10.6049587,9.5 10.6155372,9.53229462 10.6208264,9.5592068 L10.631405,9.88215297 C10.631405,9.9305949 10.673719,9.96827195 10.7213223,9.96827195 C10.7319008,9.96827195 10.7424793,9.96827195 10.7477686,9.96288952 C10.7636364,9.95750708 10.7847934,9.94674221 10.7953719,9.9305949 L10.8694215,9.83909348 C10.8694215,9.83909348 10.8694215,9.83909348 10.8694215,9.83909348 C10.8852893,9.8121813 10.9170248,9.80141643 10.9540496,9.80679887 C10.9857851,9.8121813 11.0069421,9.83371105 11.0175207,9.86600567 L11.0915702,10.4903683 C11.0968595,10.5441926 11.1497521,10.5872521 11.2026446,10.5764873 C11.2555372,10.5711048 11.2978512,10.5172805 11.2872727,10.4634561 L11.2608264,10.2320113 C11.2608264,10.2050992 11.2766942,10.1835694 11.2978512,10.1728045 C11.3190083,10.1620397 11.3454545,10.1674221 11.3613223,10.1835694 C11.3613223,10.1835694 11.3613223,10.1835694 11.3613223,10.1835694 L11.6733884,10.4473088 C11.8109091,10.5603399 12.0119008,10.5441926 12.1282645,10.4042493 C12.2393388,10.2643059 12.2234711,10.0597734 12.0859504,9.94135977 L11.8796694,9.76373938 C11.8003306,9.68300283 11.7738843,9.5592068 11.8214876,9.44617564 C11.8585124,9.36005666 11.932562,9.30084986 12.0171901,9.28470255 L12.3345455,9.29008499 C12.8052893,9.29008499 13.191405,8.90254958 13.191405,8.42351275 C13.191405,8.21359773 13.1226446,8.02521246 13.0009917,7.87450425 L12.6254545,7.27705382 C12.572562,7.14787535 12.6095868,6.99716714 12.7312397,6.91643059 C12.8528926,6.83569405 13.006281,6.8572238 13.1014876,6.96487252 L13.4770248,7.55694051 C13.5246281,7.63229462 13.625124,7.65382436 13.6991736,7.60538244 C13.7732231,7.55694051 13.7943802,7.45467422 13.7467769,7.37932011 L13.7361983,7.35779037 C13.5563636,7.02407932 13.6621488,6.59886686 13.9847934,6.38895184 C14.0429752,6.37280453 14.0852893,6.31898017 14.0905785,6.25439093 L14.1910744,5.12946176 C14.1910744,5.11869688 14.1910744,5.11331445 14.1910744,5.10254958 C14.1963636,4.95184136 14.1117355,4.81189802 13.9900826,4.74192635 C13.9795041,4.73654391 13.9689256,4.72577904 13.9583471,4.7203966 L13.6304132,4.55354108 C13.625124,4.55354108 13.625124,4.54815864 13.6198347,4.54815864 L13.6092562,4.5427762 C13.5352066,4.50509915 13.4981818,4.41359773 13.5299174,4.33286119 L13.7361983,3.59546742 C13.7520661,3.51473088 13.8155372,3.45552408 13.894876,3.45552408 L14.4766942,3.40708215 C14.492562,3.40708215 14.5031405,3.40169972 14.513719,3.39631728 C14.5771901,3.38555241 14.6300826,3.33711048 14.6406612,3.27252125 L14.7147107,2.8796034 L14.7147107,2.88498584 C14.7358678,2.7611898 14.8522314,2.67507082 14.9791736,2.701983 C15.0849587,2.72351275 15.1590083,2.81501416 15.1642975,2.92266289 L15.0056198,3.78385269 C15.0003306,3.81076487 15.0003306,3.83767705 15.0109091,3.8592068 C15.0109091,3.87535411 15.0161983,3.88611898 15.0214876,3.90226629 L15.5133884,4.74192635 C15.5398347,4.79036827 15.6033058,4.80651558 15.6509091,4.7796034 C15.6720661,4.76883853 15.6879339,4.74730878 15.6932231,4.72577904 C15.6932231,4.71501416 15.6985124,4.70963173 15.6985124,4.69886686 L15.8360331,3.96147309 C15.8413223,3.9184136 15.8360331,3.88073654 15.8201653,3.84305949 C15.8201653,3.83229462 15.814876,3.81614731 15.8095868,3.80538244 L15.5504132,3.30481586 C15.545124,3.28328612 15.5398347,3.26175637 15.5398347,3.24022663 L15.5821488,2.998017 C15.608595,2.86883853 15.7302479,2.78271955 15.8571901,2.80424929 C15.8942149,2.8203966 15.9365289,2.80424929 15.957686,2.76657224 L16.1216529,2.45977337 L16.3173554,2.09915014 C16.3649587,2.01303116 16.3332231,1.91076487 16.248595,1.86232295 C16.248595,1.86232295 16.2433058,1.86232295 16.2433058,1.86232295 C16.2380165,1.85694051 16.2327273,1.85155807 16.227438,1.84617564 L15.9100826,1.63626062 C15.7884298,1.53937677 15.751405,1.36175637 15.8360331,1.22181303 C15.8942149,1.11954674 16.0052893,1.06033994 16.1163636,1.06572238 L16.2168595,1.07648725 C16.3438017,1.09263456 16.4601653,1.00113314 16.4760331,0.871954674 C16.4601653,0.753541076 16.3702479,0.635127479 16.2433058,0.61898017 Z M4.80743802,8.32509915 L4.79077135,8.33509915 C4.76577135,8.32509915 4.74077135,8.30509915 4.71577135,8.30509915 L4.70743802,8.30509915 L4.80743802,8.32509915 Z M3.21,12.8709632 L3.2,12.8209632 L3.21,12.8709632 C3.21,12.8809632 3.21,12.8709632 3.21,12.8709632 Z M11.2343802,10.1066856 L11.2343802,10.0866856 L11.2543802,10.0966856 L11.2343802,10.1066856 Z" transform="translate(20.5 16.2)"/>
      <path d="M2.58230618,7.37393768 L2.59182999,7.18555241 C2.59182999,7.14249292 2.53468713,7.10481586 2.45849665,7.10481586 C2.38230618,7.10481586 2.31563951,7.13711048 2.31563951,7.18016997 L2.3061157,7.36855524 C2.3061157,7.41161473 2.36325856,7.44929178 2.43944904,7.44929178 C2.51563951,7.44929178 2.58230618,7.41699717 2.58230618,7.37393768 Z" transform="translate(20.5 16.2)"/>
      <path d="M24.5209917 12.201983C24.5791736 12.1535411 24.6638017 12.1643059 24.711405 12.2235127L25.3778512 13.0793201C25.4254545 13.1385269 25.414876 13.2246459 25.3566942 13.2730878 25.2985124 13.3215297 25.2138843 13.3107649 25.166281 13.2515581L24.4998347 12.3957507C24.4522314 12.3311615 24.4628099 12.2450425 24.5209917 12.201983zM24.7907438 11.8790368C24.8224793 11.8521246 24.8700826 11.8575071 24.8965289 11.8898017L25.2561983 12.3526912C25.2826446 12.3849858 25.2773554 12.4334278 25.2456198 12.4603399 25.2138843 12.4872521 25.166281 12.4818697 25.1398347 12.4495751L24.7801653 11.9866856C24.753719 11.9543909 24.7590083 11.905949 24.7907438 11.8790368zM27.6733884 5.72152975C27.7104132 5.70538244 27.7527273 5.72691218 27.7633058 5.76458924L28.2393388 6.98101983C28.2552066 7.01869688 28.2340496 7.06175637 28.1970248 7.07252125 28.16 7.08866856 28.117686 7.06713881 28.1071074 7.02946176L27.6310744 5.81303116C27.6204959 5.77535411 27.6363636 5.73229462 27.6733884 5.72152975zM25.4836364 13.5155421C25.4836364 13.4694815 25.5259504 13.4291785 25.5682645 13.4291785L26.8694215 13.5385724C26.9170248 13.5385724 26.9487603 13.584633 26.9487603 13.6306936 26.9487603 13.6767542 26.9064463 13.7170573 26.8641322 13.7170573L25.5629752 13.6076633C25.5153719 13.6076633 25.4783471 13.5673603 25.4836364 13.5155421zM26.7742149 13.2946176C26.8059504 13.3107649 26.8429752 13.2946176 26.858843 13.2623229L27.0280992 12.8694051C27.0439669 12.8371105 27.0280992 12.7994334 26.9963636 12.7832861L26.8905785 12.7348442C26.858843 12.7186969 26.8218182 12.7348442 26.8059504 12.7671388L26.6366942 13.1600567C26.6208264 13.1923513 26.6366942 13.2300283 26.6684298 13.2461756L26.7742149 13.2946176zM27.4565289 12.1050992C27.4935537 12.0889518 27.5041322 12.0458924 27.4882645 12.0082153L27.3824793 11.8036827C27.3666116 11.7660057 27.3242975 11.7552408 27.2872727 11.7713881L27.1761983 11.8305949C27.1391736 11.8467422 27.128595 11.8898017 27.1444628 11.9274788L27.2502479 12.1320113C27.2661157 12.1696884 27.3084298 12.1804533 27.3454545 12.1643059L27.4565289 12.1050992zM25.4995041 10.8466839C25.4942149 10.8823273 25.5100826 10.910842 25.5365289 10.9179706L25.7322314 10.9750001C25.7586777 10.9821287 25.7798347 10.9607427 25.785124 10.9250993L25.8009917 10.8181692C25.806281 10.7825258 25.7904132 10.7540111 25.7639669 10.7468824L25.5682645 10.689853C25.5418182 10.6827243 25.5206612 10.7041103 25.5153719 10.7397537L25.4995041 10.8466839zM27.1444628 13.8585271C27.1391736 13.8228837 27.1550413 13.7801116 27.1814876 13.772983L27.5781818 13.6232808C27.6046281 13.6161521 27.6363636 13.6375381 27.6416529 13.6731815 27.6469421 13.7088249 27.6310744 13.7515969 27.6046281 13.7587256L27.2079339 13.9084278C27.1814876 13.9155565 27.1497521 13.8941705 27.1444628 13.8585271zM31.2224793 17.9665722C31.2806612 18.0203966 31.2912397 18.111898 31.2383471 18.1711048L30.6300826 18.8815864C30.5771901 18.9407932 30.4872727 18.9515581 30.4290909 18.8977337 30.3709091 18.8439093 30.3603306 18.7524079 30.4132231 18.6932011L31.0214876 17.9827195C31.0743802 17.9235127 31.1642975 17.9127479 31.2224793 17.9665722zM26.8897819 10.0167139C26.9455418 10.0274788 26.9734217 10.0759207 26.9525118 10.1135977L26.8688719 10.301983C26.854932 10.3450425 26.7922021 10.3665722 26.7434122 10.3504249 26.6876523 10.3396601 26.6597724 10.2912181 26.6806823 10.2535411L26.7643222 10.0651558C26.7782621 10.0274788 26.834022 10.005949 26.8897819 10.0167139zM16.4813223 2.63201133C16.5395041 2.59433428 16.5553719 2.51359773 16.5183471 2.45439093L16.206281 1.9592068C16.1692562 1.9 16.0899174 1.88385269 16.0317355 1.92152975L15.8413223 2.04532578C15.7831405 2.08300283 15.7672727 2.16373938 15.8042975 2.22294618L16.1163636 2.71813031C16.1533884 2.77733711 16.2327273 2.79348442 16.2909091 2.75580737L16.4813223 2.63201133zM16.5765289 2.07223796C16.6135537 2.05070822 16.6241322 2.00226629 16.597686 1.96458924L16.412562 1.66855524C16.391405 1.63087819 16.3438017 1.62011331 16.3067769 1.6470255L16.1957025 1.7223796C16.1586777 1.74390935 16.1480992 1.79235127 16.1745455 1.83002833L16.3596694 2.12606232C16.3808264 2.16373938 16.4284298 2.17450425 16.4654545 2.14759207L16.5765289 2.07223796zM24.8542149.936543909C24.8330579.888101983 24.7801653.861189802 24.732562.882719547L24.3358678 1.04419263C24.2882645 1.06572238 24.2618182 1.11954674 24.2829752 1.16798867L24.3464463 1.32407932C24.3676033 1.37252125 24.4204959 1.39943343 24.4680992 1.37790368L24.8647934 1.21643059C24.9123967 1.19490085 24.938843 1.14107649 24.917686 1.09263456L24.8542149.936543909zM28.5355372 7.77223796C28.5778512 7.75609065 28.593719 7.71303116 28.5831405 7.66997167L28.4614876 7.33626062C28.4456198 7.29320113 28.4033058 7.27705382 28.3609917 7.2878187L28.2340496 7.33626062C28.1917355 7.35240793 28.1758678 7.39546742 28.1864463 7.43852691L28.3080992 7.77223796C28.3239669 7.81529745 28.366281 7.83144476 28.408595 7.82067989L28.5355372 7.77223796zM31.5186777 17.9073654C31.5557025 17.9450425 31.6138843 17.9396601 31.6509091 17.901983L31.9418182 17.5844193C31.978843 17.5467422 31.9735537 17.4875354 31.9365289 17.4498584L31.814876 17.3314448C31.7778512 17.2937677 31.7196694 17.2991501 31.6826446 17.3368272L31.3917355 17.6543909C31.3547107 17.692068 31.36 17.7512748 31.3970248 17.7889518L31.5186777 17.9073654zM28.6519008 18.0688385C28.6942149 18.0796034 28.7418182 18.0473088 28.7471074 18.0042493L28.8158678 17.6328612C28.8264463 17.5898017 28.7947107 17.5413598 28.7523967 17.5359773L28.6095868 17.5090652C28.5672727 17.4983003 28.5196694 17.5305949 28.5143802 17.5736544L28.4456198 17.9450425C28.4350413 17.988102 28.4667769 18.0365439 28.5090909 18.0419263L28.6519008 18.0688385zM23.1609263 12.1212465C23.1829044 12.1050992 23.1883989 12.078187 23.1774099 12.0566572L23.0565307 11.8736544C23.0400472 11.8521246 23.0125747 11.8467422 22.9905967 11.8575071L22.9191681 11.905949C22.8971901 11.9220963 22.8916956 11.9490085 22.9026846 11.9705382L23.0235637 12.1535411C23.0400472 12.1750708 23.0675198 12.1804533 23.0894978 12.1696884L23.1609263 12.1212465zM27.7200411 12.7586085C27.7569075 12.7586085 27.7845573 12.7355782 27.7845573 12.7125479L27.7569075 12.5167903C27.7569075 12.49376 27.7200411 12.4764873 27.6831748 12.4764873L27.5633591 12.4822448C27.5264927 12.4822448 27.498843 12.5052751 27.498843 12.5283054L27.5264927 12.724063C27.5264927 12.7470933 27.5633591 12.764366 27.6002255 12.764366L27.7200411 12.7586085zM27.3969776 11.7229416C27.4359386 11.7229416 27.4619126 11.6989517 27.4619126 11.6749618L27.4359386 11.4830427C27.4359386 11.4590528 27.3969776 11.4430595 27.3580165 11.4430595L27.2411334 11.4510561C27.2021724 11.4510561 27.1761983 11.475046 27.1761983 11.4990359L27.2021724 11.6909551C27.2021724 11.714945 27.2411334 11.7309383 27.2800945 11.7309383L27.3969776 11.7229416zM27.1299373 11.6480583C27.1461802 11.6295929 27.1380588 11.5926621 27.1218159 11.5834294L26.9593875 11.4634042C26.9431447 11.4449388 26.910659 11.4541715 26.9025376 11.4726369L26.8619305 11.5464986C26.8456877 11.564964 26.8538091 11.6018948 26.8700519 11.6111275L27.0324803 11.7311526C27.0487232 11.749618 27.0812088 11.7403853 27.0893303 11.7219199L27.1299373 11.6480583zM28.3821488 8.56345609L28.16 7.63229462C28.1494215 7.57847025 28.0912397 7.54617564 28.0383471 7.55694051 27.9854545 7.56770538 27.953719 7.62691218 27.9642975 7.68073654L28.117686 8.33739377C28.117686 8.33739377 28.117686 8.3427762 28.117686 8.3427762 28.1229752 8.41813031 28.0859504 8.49348442 28.0119008 8.52577904L27.4512397 8.87563739C27.3824793 8.92407932 27.3613223 9.02096317 27.4089256 9.09093484 27.4142149 9.09631728 27.4142149 9.10169972 27.4195041 9.10708215L27.5094215 9.30084986C27.5358678 9.35467422 27.5993388 9.37620397 27.6469421 9.34929178 27.6945455 9.32776204 27.7157025 9.27393768 27.6998347 9.22549575 27.6998347 9.22549575 27.6998347 9.22011331 27.6945455 9.22011331 27.6945455 9.21473088 27.6945455 9.21473088 27.6892562 9.20934844L27.6839669 9.19858357C27.6680992 9.13937677 27.6892562 9.08016997 27.747438 9.04787535L28.3028099 8.70339943C28.3186777 8.69263456 28.3292562 8.68186969 28.3398347 8.66572238 28.3768595 8.6388102 28.3927273 8.60113314 28.3821488 8.56345609zM26.9804959 11.2439093C26.9328926 11.2008499 26.9117355 11.1416431 26.9117355 11.0824363L26.9646281 10.9371105C26.9804959 10.8832861 26.9540496 10.8294618 26.901157 10.8133144 26.8482645 10.7971671 26.7953719 10.8240793 26.7795041 10.8779037L26.7001653 11.1147309C26.694876 11.1254958 26.694876 11.1308782 26.694876 11.1416431 26.6895868 11.1685552 26.694876 11.2008499 26.7160331 11.2169972L26.8641322 11.3569405C26.8958678 11.3892351 26.9487603 11.3838527 26.9752066 11.3515581 27.0016529 11.3192635 27.0016529 11.276204 26.9804959 11.2439093zM26.6842975 12.3419263L26.7001653 12.325779C26.7424793 12.2827195 26.7424793 12.2181303 26.7001653 12.1750708L26.5732231 12.0405099C26.5309091 11.9974504 26.467438 11.9974504 26.425124 12.0405099L26.2135537 12.2504249C26.2135537 12.2504249 26.2135537 12.2504249 26.2135537 12.2504249L25.8009917 12.6648725C25.7480992 12.7133144 25.7480992 12.7994334 25.8009917 12.8478754L26.0654545 13.1169972C26.1130579 13.1708215 26.197686 13.1708215 26.2452893 13.1169972L26.6578512 12.7025496C26.7107438 12.6541076 26.7107438 12.5679887 26.6631405 12.5195467 26.6366942 12.4711048 26.6419835 12.3957507 26.6842975 12.3419263zM29.873719 15.5983003L29.5616529 14.9954674C29.5246281 14.9254958 29.4770248 14.8716714 29.4135537 14.8339943 29.4135537 14.8339943 29.4082645 14.8339943 29.4082645 14.8286119 29.4082645 14.8286119 29.4082645 14.8286119 29.4029752 14.8286119 29.397686 14.8286119 29.397686 14.8232295 29.3923967 14.8232295 29.3447934 14.7963173 29.3130579 14.7478754 29.3024793 14.694051L29.3024793 14.3926346C29.3024793 14.3011331 29.2390083 14.225779 29.1490909 14.2096317 29.0961983 14.1988669 29.0538843 14.1504249 29.0538843 14.0912181L29.0538843 13.9351275C29.0538843 13.8705382 29.0009917 13.8167139 28.9375207 13.8167139 28.8740496 13.8167139 28.821157 13.8705382 28.821157 13.9351275L28.821157 14.4518414C28.8158678 14.4895184 28.7894215 14.521813 28.757686 14.5379603 28.7259504 14.5541076 28.6942149 14.5541076 28.6624793 14.5433428L28.4403306 14.398017C28.387438 14.3549575 28.366281 14.2903683 28.3768595 14.225779 28.3927273 14.1827195 28.3927273 14.1396601 28.3768595 14.0912181 28.3398347 13.9943343 28.2340496 13.9458924 28.138843 13.978187L26.9857851 14.4087819C26.9064463 14.4410765 26.858843 14.521813 26.8641322 14.607932 26.858843 14.6671388 26.8218182 14.7209632 26.7636364 14.7478754L26.1130579 14.990085C26.033719 15.0169972 25.9861157 15.0977337 25.991405 15.1784703 25.991405 15.1784703 25.991405 15.1784703 25.991405 15.1784703L25.991405 16.4379603C25.991405 16.5563739 26.0813223 16.6478754 26.197686 16.6478754 26.197686 16.6478754 26.2029752 16.6478754 26.2029752 16.6478754 26.2241322 16.6478754 26.2505785 16.6478754 26.2717355 16.6371105L27.4353719 16.2603399C27.5147107 16.2280453 27.6046281 16.2603399 27.6522314 16.3303116L27.8796694 16.6478754C27.911405 16.6909348 27.9590083 16.717847 28.0066116 16.7286119 28.0171901 16.7286119 28.0277686 16.7339943 28.0383471 16.7339943 28.1071074 16.7501416 28.1705785 16.803966 28.181157 16.8793201 28.202314 17.0461756 28.2975207 17.2076487 28.4509091 17.2991501 28.7153719 17.4498584 29.048595 17.3583569 29.1966942 17.0892351L29.8102479 16.0235127C29.9213223 15.9104816 29.9477686 15.7436261 29.873719 15.5983003zM18.2796694 1.36175637C18.2796694 1.40481586 18.3166942 1.43711048 18.3590083 1.43711048L18.7028099 1.42096317C18.745124 1.42096317 18.7768595 1.38328612 18.7768595 1.34022663L18.7715702 1.20566572C18.7715702 1.16260623 18.7345455 1.13031161 18.6922314 1.13031161L18.3484298 1.14645892C18.3061157 1.14645892 18.2743802 1.18413598 18.2743802 1.22719547L18.2796694 1.36175637zM18.147438 1.42455576C18.147438 1.38667697 18.1209917 1.35637394 18.0945455 1.35637394L17.8723967 1.37910121C17.8459504 1.37910121 17.8247934 1.41698 17.8247934 1.45485879L17.8300826 1.57607091C17.8300826 1.6139497 17.8565289 1.64425273 17.8829752 1.64425273L18.105124 1.62152545C18.1315702 1.62152545 18.1527273 1.58364666 18.1527273 1.54576788L18.147438 1.42455576zM29.7520661 13.6929178L29.5352066 13.5906516C29.4770248 13.5583569 29.4558678 13.4883853 29.4770248 13.423796 29.5087603 13.3430595 29.4717355 13.2569405 29.397686 13.2192635L28.5619835 12.8209632C28.4985124 12.7886686 28.4244628 12.8048159 28.3821488 12.8532578 28.3821488 12.8532578 28.3768595 12.8532578 28.3768595 12.8532578 28.3239669 12.9070822 28.2446281 12.9286119 28.1758678 12.8963173L27.9960331 12.8101983C27.9484298 12.7886686 27.8902479 12.8101983 27.8638017 12.8586402 27.8426446 12.9070822 27.8638017 12.966289 27.911405 12.9932011L28.4932231 13.2677054C28.551405 13.2946176 28.5778512 13.3592068 28.5672727 13.4184136 28.551405 13.4830028 28.5831405 13.5529745 28.6413223 13.5745042L28.9533884 13.7144476C29.0115702 13.7359773 29.0750413 13.7144476 29.1067769 13.6660057 29.1332231 13.6067989 29.1966942 13.5798867 29.254876 13.596034L29.6938843 13.805949C29.7256198 13.8220963 29.7626446 13.805949 29.7785124 13.7736544 29.7943802 13.7467422 29.7785124 13.7090652 29.7520661 13.6929178z" transform="translate(7 15)"/>
      <path d="M.95.832C.945454545.816.931818182.804.913636364.8.909090909.8.909090909.796.904545455.796.904545455.792.904545455.792.904545455.788L.95.74C.977272727.712.972727273.672.940909091.648.922727273.636.9.628.877272727.636.859090909.64.840909091.632.831818182.62L.631818182.344C.622727273.332.604545455.32.586363636.32.581818182.32.577272727.316.577272727.312.572727273.308.572727273.304.572727273.3L.65.176C.654545455.172.654545455.168.65.16.65.16.65.156.65.156.65.144.640909091.136.627272727.136L.513636364.14C.509090909.14.504545455.136.504545455.136.5.132.5.128.5.124L.518181818.088C.527272727.068.518181818.044.495454545.036.472727273.028.445454545.036.436363636.056L.345454545.236C.340909091.24.340909091.248.340909091.252.340909091.26.340909091.268.345454545.276L.454545455.448C.468181818.468.490909091.472.513636364.464.518181818.464.522727273.464.527272727.464.531818182.468.531818182.468.531818182.472.527272727.48.527272727.488.527272727.5L.554545455.6C.559090909.616.545454545.636.522727273.64.5.644.486363636.66.486363636.68L.495454545.82C.495454545.84.518181818.86.545454545.856.545454545.856.55.856.55.856.554545455.856.559090909.856.563636364.864.563636364.868.563636364.872.554545455.876L.495454545.888C.468181818.892.454545455.916.459090909.94.463636364.964.490909091.976.518181818.972L.909090909.888C.940909091.876.954545455.856.95.832zM.3.412C.259090909.4.213636364.424.204545455.46L.190909091.504C.186363636.512.177272727.52.163636364.52L.1.52C.0681818182.52.0409090909.54.0409090909.568.0409090909.596.0636363636.62.0954545455.62L.1.62C.104545455.62.109090909.624.113636364.628.118181818.632.118181818.636.113636364.644.113636364.644.113636364.644.113636364.644L.0681818182.72C.0681818182.72.0681818182.72.0681818182.72.0681818182.724.0636363636.724.0590909091.724L.0545454545.724C.0227272727.732.00909090909.76.0181818182.788.0272727273.816.0590909091.828.0909090909.82L.309090909.756C.318181818.756.327272727.748.327272727.74L.354545455.604C.354545455.596.35.588.340909091.584.336363636.58.336363636.58.336363636.576L.359090909.504C.363636364.464.340909091.424.3.412z" transform="translate(21 21)"/>
    </g>
  </g>
</svg>