
670 bytes → 416 bytes 62.09%
<svg xmlns="http://www.w3.org/2000/svg" data-name="Layer 1" viewBox="0 0 1000 1000">
  <path fill="white" d="M274 356c-44-44-115-45-159-1l-1 1c-43 44-43 115 0 159 104 103 187 49 235 97l212 247a41 41 0 0 0 57 1l1-1a41 41 0 0 0-1-57L371 590c-48-48 6-131-97-234z"/>
  <path fill="white" d="M894 515c44-44 45-115 1-159l-1-1c-44-43-115-43-159 0-103 104-49 187-97 235L391 802a41 41 0 0 0-1 57v1h1a41 41 0 0 0 57-1l212-247c48-48 131 6 234-97z"/>
  <path fill="white" d="M676 329l2-21a11 11 0 0 0-10-12H348a9 9 0 0 0-1 0 11 11 0 0 0-10 12c7 101 38 200 76 258a11 11 0 0 0 9 5h171a11 11 0 0 0 9-5c3-4 31-57 49-114s22-118 25-123m-315-11h293c-8 91-35 180-68 231H429c-33-51-60-140-68-231zm41 33c-5 0-8 5-8 12s4 10 9 10h209c5 0 9-5 9-11s-4-11-9-11H403a6 6 0 0 0-1 0z"/>
</svg>